<svg xmlns="http://www.w3.org/2000/svg" viewBox="0 0 630 630"><defs><style>.cls-1{fill:#f7df1e;}</style></defs><g id="Layer_2" data-name="Layer 2"><g id="Layer_1-2" data-name="Layer 1"><rect class="cls-1" width="630" height="630"/><path d="M423.2,492.19c12.69,20.72,29.2,35.95,58.4,35.95,24.53,0,40.2-12.26,40.2-29.2,0-20.3-16.1-27.49-43.1-39.3l-14.8-6.35c-42.72-18.2-71.1-41-71.1-89.2,0-44.4,33.83-78.2,86.7-78.2,37.64,0,64.7,13.1,84.2,47.4l-46.1,29.6c-10.15-18.2-21.1-25.37-38.1-25.37-17.34,0-28.33,11-28.33,25.37,0,17.76,11,24.95,36.4,35.95l14.8,6.34c50.3,21.57,78.7,43.56,78.7,93,0,53.3-41.87,82.5-98.1,82.5-55,0-90.5-26.2-107.88-60.54Zm-209.13,5.13c9.3,16.5,17.76,30.45,38.1,30.45,19.45,0,31.72-7.61,31.72-37.2V289.27h59.2v202.1c0,61.3-35.94,89.2-88.4,89.2-47.4,0-74.85-24.53-88.81-54.08Z"/><path d="M45.66,34.46h1.2L78,103.07H63.26l-3.2-7.7H32.46l-3.21,7.7H15.75Zm9.4,49.21-4.9-11.8c-2-4.8-4.1-12.2-4.1-12.2a123.31,123.31,0,0,1-4,12.2l-4.9,11.8Z"/><path d="M84.15,35.06h14V90.77H129v12.3H84.15Z"/><path d="M131,69.07c0-20.11,14.2-34.81,34.7-34.81,11.1,0,19.11,3,24.71,9.4l-9.51,9.41c-3.39-3.51-7.3-6.21-15.2-6.21-12.3,0-20.3,9.51-20.3,22.21s8.2,22.4,22.5,22.4c4.4,0,9.8-.8,13.31-2.5V79H164.75V66.67H194v29.4c-3.9,3.2-13.7,7.9-26.11,7.9C145.65,104,131,89.17,131,69.07Z"/><path d="M201.85,69.07c0-20.11,15.6-34.91,35.2-34.91S272.26,49,272.26,69.07,256.66,104,237.05,104,201.85,89.17,201.85,69.07Zm56,0c0-12.7-8.4-22.4-20.81-22.4s-20.8,9.7-20.8,22.4,8.4,22.4,20.8,22.4S257.86,81.77,257.86,69.07Z"/><path d="M331.35,103.07h-16.2L304,85.87a26.93,26.93,0,0,1-4,.3h-4.8v16.9h-14v-68H300c19,0,30.4,9.1,30.4,25.71,0,10.6-4.7,17.3-13.1,21.1ZM299.55,74c11.4,0,16.4-3.6,16.4-13.2s-5.2-13.41-16.4-13.41h-4.4V74Z"/><path d="M339.85,35.06h14v68h-14Z"/><path d="M380.75,47.36h-19.4V35.06h52.8v12.3h-19.4v55.71h-14Z"/><path d="M421.45,35.06h14V69.87h29.1V35.06h14v68h-14V82.37h-29.1v20.7h-14Z"/><path d="M489.75,34.36h1.1l33.5,36.81,33-36.81h1.2v68.71h-13.5V77.57c0-4.6.5-11.9.5-11.9a120,120,0,0,1-7.3,9.6l-13.5,15.1h-1.3L510,75.27a120,120,0,0,1-7.3-9.6s.5,7.3.5,11.9v25.5h-13.4Z"/><path d="M563.85,89.67l11.4-6.6c3,4.9,6.9,8.5,13.8,8.5,5.8,0,9.5-2.9,9.5-6.9,0-4.8-3.8-6.5-10.2-9.3l-3.5-1.5c-10.1-4.3-16.8-9.7-16.8-21.1,0-10.51,8-18.51,20.5-18.51,8.9,0,15.3,3.1,19.9,11.2l-10.9,7c-2.4-4.3-5-6-9-6s-6.7,2.6-6.7,6c0,4.2,2.6,5.9,8.6,8.5l3.5,1.5c11.9,5.1,18.6,10.3,18.6,22,0,12.6-9.9,19.5-23.2,19.5C576.35,104,568,97.77,563.85,89.67Z"/></g></g></svg>