<svg xmlns="http://www.w3.org/2000/svg" viewBox="0 0 151.96 151.96"><defs><style>.cls-1{fill:#231f20;}.cls-2{fill:#fff;}</style></defs><g id="Layer_2" data-name="Layer 2"><g id="Layer_1-2" data-name="Layer 1"><rect class="cls-1" width="151.96" height="151.96"/><path class="cls-2" d="M28.37,36v8.24H23.09V23h21.2V36Zm10.68-8H28.32v3.14H39.05ZM49.6,44.22V23h5.23V44.22ZM72.23,33.67l8,10.55H75l-5.32-7.1-5.35,7.1h-5.2L67,33.67,59,23h5.23l5.38,7.15L75,23h5.2ZM85.08,44.22V23h21.2v5h-16v3.14h16V36h-16v3.27h16v5Zm26.51,0V23h5.23V39.25h16v5ZM28.73,75.48V87.66H20.94V56.34H52.25V75.48Zm15.79-11.8H28.67v4.64H44.52Zm41.32,24V75.48H70V87.66H62.26V56.34H93.58V87.66Zm0-24H70v4.58H85.84Zm0,65.25V116.75H70v12.18H62.26V97.62H93.58v31.31Zm0-24H70v4.58H85.84Zm41.33-17.3v-24H111.32v24h-7.74V56.34h31.33V87.66ZM20.93,128.93V105H17.06V97.62H52.25v31.31Zm23.59-24H28.6v16.63H44.52Zm59.06,24v-7.34h23.59v-4.77H103.58V97.62h31.33V105H111.32v4.51h23.59v19.46Z"/></g></g></svg>