<svg xmlns="http://www.w3.org/2000/svg" viewBox="0 0 512 512"><defs><style>.cls-1{fill:#3178c6;}.cls-2,.cls-3{fill:#fff;}.cls-2{fill-rule:evenodd;}</style></defs><g id="Layer_2" data-name="Layer 2"><g id="Layer_1-2" data-name="Layer 1"><rect class="cls-1" width="512" height="512" rx="50"/><path class="cls-2" d="M317,407v50c8.1,4.2,18,7.3,29,9.4a189.13,189.13,0,0,0,35,3.1,163.37,163.37,0,0,0,34-3.4,86.26,86.26,0,0,0,28-11c8.1-5.3,15-12,19-21a75.6,75.6,0,0,0,7.1-32,65.94,65.94,0,0,0-4.1-24,47.11,47.11,0,0,0-12-18,79.42,79.42,0,0,0-18-14,223.3,223.3,0,0,0-24-12c-6.6-2.7-12-5.3-18-7.9a78,78,0,0,1-13-7.8,35.69,35.69,0,0,1-8.5-8.4,17.56,17.56,0,0,1-3-10,16.76,16.76,0,0,1,2.7-9.3,23.4,23.4,0,0,1,7.5-7.1,39,39,0,0,1,12-4.6,69.83,69.83,0,0,1,16-1.6,92.33,92.33,0,0,1,13,.94,107.27,107.27,0,0,1,14,2.9,111.11,111.11,0,0,1,14,4.9,66.07,66.07,0,0,1,12,6.9V246a123.53,123.53,0,0,0-25-6.5,200.5,200.5,0,0,0-31-2.1,150.76,150.76,0,0,0-34,3.8,79.15,79.15,0,0,0-28,12,57.58,57.58,0,0,0-19,21c-4.7,8.4-7,18-7,30,0,15,4.3,28,13,38,8.6,11,22,19,39,27,6.9,2.8,13,5.6,19,8.3a85.32,85.32,0,0,1,15,8.4,36.64,36.64,0,0,1,10,9.5,19.74,19.74,0,0,1,3.8,12,18.6,18.6,0,0,1-2.3,9,19.68,19.68,0,0,1-7.1,7.2,40.56,40.56,0,0,1-12,4.8,73.1,73.1,0,0,1-17,1.7,90.65,90.65,0,0,1-32-5.7,95,95,0,0,1-30-17ZM233,284h64V243H118v41h64V467h51Z"/><path class="cls-3" d="M45.81,34.43h.94L71.1,88.15H59.59l-2.5-6H35.48l-2.51,6H22.4ZM53.17,73l-3.84-9.24c-1.56-3.76-3.21-9.55-3.21-9.55A95.35,95.35,0,0,1,43,63.72L39.16,73Z"/><path class="cls-3" d="M76,34.9h11V78.52H111v9.63H76Z"/><path class="cls-3" d="M112.6,61.53c0-15.74,11.12-27.25,27.17-27.25,8.69,0,14.95,2.35,19.34,7.36L151.67,49c-2.66-2.74-5.72-4.86-11.9-4.86-9.63,0-15.9,7.44-15.9,17.39s6.42,17.53,17.62,17.53a26.25,26.25,0,0,0,10.41-2V69.28H139.06V59.65h22.87v23c-3.06,2.5-10.73,6.18-20.44,6.18C124.11,88.85,112.6,77.26,112.6,61.53Z"/><path class="cls-3" d="M168.11,61.53c0-15.74,12.22-27.33,27.56-27.33s27.56,11.59,27.56,27.33S211,88.85,195.67,88.85,168.11,77.26,168.11,61.53Zm43.85,0c0-10-6.58-17.54-16.29-17.54s-16.28,7.59-16.28,17.54S186,79.06,195.67,79.06,212,71.47,212,61.53Z"/><path class="cls-3" d="M269.51,88.15H256.82l-8.77-13.47a20.61,20.61,0,0,1-3.13.23h-3.76V88.15h-11V34.9h14.72c14.88,0,23.8,7.13,23.8,20.13,0,8.3-3.68,13.54-10.25,16.52Zm-24.9-22.79c8.92,0,12.84-2.82,12.84-10.33s-4.07-10.49-12.84-10.49h-3.45V65.36Z"/><path class="cls-3" d="M276.16,34.9h11V88.15h-11Z"/><path class="cls-3" d="M308.19,44.54H293V34.9h41.34v9.64H319.15V88.15h-11Z"/><path class="cls-3" d="M340,34.9h11V62.15h22.78V34.9h11V88.15h-11V71.94H350.94V88.15H340Z"/><path class="cls-3" d="M393.45,34.36h.86l26.23,28.81,25.84-28.81h.94V88.15H436.75v-20c0-3.6.39-9.32.39-9.32s-3.21,4.7-5.71,7.52L420.86,78.2h-1L409.35,66.38a93.35,93.35,0,0,1-5.72-7.52s.39,5.72.39,9.32v20H393.53V34.36Z"/><path class="cls-3" d="M451.47,77.66l8.93-5.17c2.34,3.83,5.4,6.65,10.8,6.65,4.54,0,7.44-2.27,7.44-5.4,0-3.76-3-5.09-8-7.28l-2.74-1.18c-7.91-3.36-13.15-7.59-13.15-16.52,0-8.22,6.26-14.48,16.05-14.48,7,0,12,2.43,15.58,8.77l-8.53,5.48c-1.88-3.37-3.92-4.7-7.05-4.7s-5.25,2-5.25,4.7c0,3.29,2,4.62,6.74,6.65L475,56.36c9.31,4,14.56,8.06,14.56,17.22,0,9.87-7.75,15.27-18.16,15.27C461.26,88.85,454.68,84,451.47,77.66Z"/></g></g></svg>